<svg fill="none" viewBox="0 0 320 220" height="220" width="320" xmlns="http://www.w3.org/2000/svg">
  
  <g transform="translate(32,16)">
    
    
    <g transform="translate(42,22) scale(0.55)">
      <path stroke-linejoin="round" stroke-width="1.2" stroke="#0F2A5E" fill="#0F2A5E" d="M227.879,72.688c2.56,0.999,3.772-8.64,10.08-11.476c13.801-6.203,25.992,3.114,33.046-0.621c5.272-2.792,6.823-8.218,7.133-10.389c0.31-2.171,1.706-3.877,1.55,1.24c-0.154,5.117,0.643,19.074-22.966,19.074c-9.32-0.386-11.295,1.159-11.94,4.032c-1.188,5.288,3.256,7.908,6.203,9.148c2.946,1.241,9.614,4.188,10.234,14.267c0.621,3.411,10.39,19.538,12.871,22.64c2.481,3.102,6.513,7.908,1.086,12.095c-2.327,1.861-4.808,2.171-4.808,2.171s-4.341,7.288-15.972-1.706c-5.583,0.31-20.159-1.551-28.688-6.668c-1.457-0.659-8.858-2.229-25.467,16.176c-3.256,3.567-4.677,9.91-10.336,16.983c-5.583,6.978-11.669,6.423-12.769,8.758c-3.722,7.909-1.533,16.95-2.445,20.73c-1.085,4.497-6.955,12.405-5.094,20.004c1.861,7.599,3.698,18.143,11.762,22.33c-6.513,0-21.089,0-21.089,0s-6.668-12.406-4.342-23.105c2.327-10.7-1.551-36.751-3.722-39.853c-2.171-3.101-14.111-3.101-34.58-4.497s-34.361-14.419-46.597-13.646c-3.253,0.206-9.924,2.326-18.763,17.212c-4.496,8.38-12.406,10.7-13.181,18.608c-0.775,7.908-3.061,33.991,10.854,45.281c-13.801,0.309-20.314,0-20.314,0s-4.187-14.112-2.481-30.705c1.706-16.592-4.187-24.19-3.256-31.013c0.931-6.823,7.908-12.095,6.513-24.035c-1.396-11.94-17.212-27.447-17.988-45.59c-0.62,8.994-2.636,25.121-1.551,44.039c2.791,8.684,12.515,10.882-1.396,41.869c0.155-8.218-9.769-12.561-9.46-23.26c0.311-10.7,5.583-12.871,5.738-18.608c0.155-5.737-0.465-42.488-0.465-42.488S5.973,86.04,15.657,78.068c9.177-7.556,22.652-11.344,44.052-11.034c21.4,0.31,29.282,11.339,43.245,9.578c13.179-1.662,27.542-5.321,44.29-8.577C163.991,64.778,198.106,61.059,227.879,72.688z"></path>
    </g>

    
    <path stroke-linecap="round" stroke-linejoin="round" stroke-width="7.5" stroke="#10B981" fill="none" d="M28 84 L55 69 L82 73 L115 49 L147 57 L177 34 L207 48 L235 20"></path>
    
    <polygon fill="#10B981" points="229,23 243,20 229,17"></polygon>

    
    
    <circle fill="#00E5C0" r="4.1" cy="73" cx="108"></circle>
    <circle fill="#00E5C0" r="3.7" cy="87" cx="130"></circle>
    <circle fill="#00E5C0" r="4.3" cy="67" cx="155"></circle>
    <circle fill="#00E5C0" r="3.6" cy="90" cx="178"></circle>
    
    <path stroke-dasharray="2.8,1.6" stroke-width="2" stroke="#00E5C0" fill="none" d="M108 73 L125 80 L130 87"></path>
    <path stroke-dasharray="2.8,1.6" stroke-width="2" stroke="#00E5C0" fill="none" d="M130 87 L147 73 L155 67"></path>
    <path stroke-dasharray="2.8,1.6" stroke-width="2" stroke="#00E5C0" fill="none" d="M155 67 L171 80 L178 90"></path>

    
    
    <g transform="translate(205,38) scale(0.152)">
      
      <path stroke-width="14" stroke="#0F2A5E" fill="#00E5C0" d="M434.863,126.093V77.137h-48.956V0h-33.391v77.137h-42.083V0h-33.391v77.137h-42.083V0h-33.391v77.137h-42.083V0h-33.391v77.137H77.137v48.956H0v33.391h77.137v42.083H0v33.391h77.137v42.083H0v33.391h77.137v42.083H0v33.391h77.137v48.956h48.956V512h33.391v-77.137h42.083V512h33.391v-77.137h42.083V512h33.391v-77.137h42.083V512h33.391v-77.137h48.956v-48.956H512v-33.391h-77.137v-42.083H512v-33.391h-77.137v-42.083H512v-33.391h-77.137v-42.083H512v-33.39H434.863z M401.473,401.471h-0.001H110.529V110.529h290.944V401.471z"></path>
      
      
      <path stroke-width="8" stroke="#00E5C0" fill="#0F2A5E" d="M375.773,229.532c0-22.913-14.194-42.903-34.426-51.239c-1.374-26.935-23.718-48.426-50.987-48.426c-13.221,0-25.283,5.052-34.36,13.325c-9.077-8.273-21.139-13.325-34.36-13.325c-27.27,0-49.615,21.491-50.987,48.426c-20.234,8.336-34.426,28.326-34.426,51.239c0,9.577,2.445,18.593,6.742,26.459c-4.391,8.051-6.742,17.113-6.742,26.478c-0.001,23.125,14.25,42.974,34.428,51.253c1.381,26.928,23.722,48.411,50.986,48.411c13.221,0,25.283-5.052,34.36-13.325c9.077,8.273,21.139,13.325,34.36,13.325c27.265,0,49.606-21.483,50.986-48.411c20.176-8.28,34.428-28.129,34.428-51.253c0-9.366-2.351-18.428-6.742-26.478C373.328,248.124,375.773,239.108,375.773,229.532z M239.304,331.078c0,9.74-7.924,17.664-17.664,17.664c-7.943,0-14.674-5.271-16.889-12.497c10.656-2.612,20.43-8.341,27.914-16.604l-24.749-22.417c-4.226,4.667-10.018,7.237-16.308,7.237c-12.127,0-21.992-9.866-21.992-21.992c0-0.697,0.033-1.389,0.098-2.076c6.719,2.904,14.12,4.521,21.895,4.521v-33.391c-12.127,0-21.992-9.866-21.992-21.993c-0.001-7.907,4.25-14.938,10.63-18.817c5.774,8.031,13.85,14.415,23.463,18.021l11.727-31.264c-6.855-2.571-11.461-9.222-11.461-16.549c0-9.74,7.924-17.664,17.664-17.664c9.74,0,17.664,7.924,17.664,17.664V331.078z M342.285,280.393c0.065,0.687,0.098,1.379,0.098,2.076c0,12.127-9.866,21.992-21.993,21.992c-6.289,0-12.081-2.57-16.307-7.237l-24.748,22.417c7.485,8.263,17.258,13.993,27.914,16.604c-2.215,7.227-8.947,12.497-16.889,12.497c-9.74,0-17.664-7.924-17.664-17.664V180.922c0-9.74,7.924-17.664,17.664-17.664c9.739,0,17.664,7.924,17.664,17.664c0,7.327-4.606,13.978-11.461,16.549l11.727,31.264c9.613-3.606,17.688-9.991,23.463-18.021c6.38,3.879,10.631,10.911,10.631,18.817c0,12.127-9.866,21.993-21.993,21.993v33.391C328.164,284.915,335.566,283.297,342.285,280.393z"></path>
    </g>

  </g>

  
  
  <text style="paint-order: stroke fill; stroke: #0F2A5E; stroke-width: 1.6px;" letter-spacing="4.8px" font-weight="900" font-size="19.8" font-family="system-ui, Arial Black, sans-serif" fill="#10B981" text-anchor="middle" y="172" x="160">LONG TERM</text>
  
  
  <text style="paint-order: stroke fill; stroke: #0F2A5E; stroke-width: 1.2px;" letter-spacing="3.9px" font-weight="900" font-size="19.8" font-family="system-ui, Arial Black, sans-serif" fill="#10B981" text-anchor="middle" y="195" x="160">TRADER AGENT</text>
</svg>
